<svg width="18" height="18" viewBox="0 0 18 18" fill="none" xmlns="http://www.w3.org/2000/svg">
<circle cx="9" cy="9" r="9" fill="url(#paint0_linear)"/>
<path d="M9.8457 8.99023H8.15469C6.4918 8.99023 5.13867 10.3432 5.13867 12.0063V14H12.8617V12.0063C12.8617 10.3432 11.5086 8.99023 9.8457 8.99023ZM5.72461 13.4141V12.0063C5.72461 10.6662 6.81484 9.57617 8.15469 9.57617H9.8457C11.1855 9.57617 12.2758 10.6662 12.2758 12.0063V13.4141H5.72461Z" fill="white"/>
<path d="M9.00019 4C7.71426 4 6.66797 5.04629 6.66797 6.33223C6.66797 7.61816 7.71426 8.66445 9.00019 8.66445C10.2861 8.66445 11.3324 7.61816 11.3324 6.33223C11.3324 5.04629 10.2861 4 9.00019 4ZM9.00019 8.07852C8.0373 8.07852 7.25391 7.29512 7.25391 6.33223C7.25391 5.36934 8.0373 4.58594 9.00019 4.58594C9.96309 4.58594 10.7465 5.36934 10.7465 6.33223C10.7465 7.29512 9.96309 8.07852 9.00019 8.07852Z" fill="white"/>
<defs>
<linearGradient id="paint0_linear" x1="19" y1="4" x2="9" y2="18" gradientUnits="userSpaceOnUse">
<stop stop-color="#FD008C"/>
<stop offset="1" stop-color="#540D6E"/>
</linearGradient>
</defs>
</svg>
