<svg height="512" viewBox="0 0 512 512" width="512" xmlns="http://www.w3.org/2000/svg"><g id="Flat"><path d="m256 488h-192a32 32 0 0 1 -32-32v-167.669a294 294 0 0 0 -4-48.331 294 294 0 0 1 -4-48.331v-135.669a32 32 0 0 1 32-32h208a32 32 0 0 1 32 32v135.669a294 294 0 0 1 -4 48.331 294 294 0 0 0 -4 48.331v167.669a32 32 0 0 1 -32 32z" fill="#426887"/><rect fill="#de5540" height="32" rx="8.293" width="40" x="64" y="424"/><rect fill="#ffb431" height="32" rx="8.293" width="40" x="136" y="424"/><rect fill="#96b268" height="32" rx="8.293" width="40" x="208" y="424"/><g fill="#4db6e4"><rect height="32" rx="8.293" width="40" x="64" y="360"/><rect height="32" rx="8.293" width="40" x="136" y="360"/><rect height="32" rx="8.293" width="40" x="208" y="360"/><rect height="32" rx="8.293" width="40" x="64" y="296"/><rect height="32" rx="8.293" width="40" x="136" y="296"/><rect height="32" rx="8.293" width="40" x="208" y="296"/></g><path d="m64 24h192a0 0 0 0 1 0 0v216a24 24 0 0 1 -24 24h-144a24 24 0 0 1 -24-24v-216a0 0 0 0 1 0 0z" fill="#35546d"/><path d="m88 224h24v16h-24z" fill="#4db6e4"/><path d="m128 224h24v16h-24z" fill="#4db6e4"/><path d="m168 224h24v16h-24z" fill="#4db6e4"/><path d="m208 224h24v16h-24z" fill="#4db6e4"/><path d="m64 64h192v136h-192z" fill="#348ed8"/><path d="m64 64h192v16h-192z" fill="#2c86d1"/><path d="m208 160h16v16h-16z" fill="#2d7dbe"/><path d="m176 160h16v16h-16z" fill="#2d7dbe"/><path d="m144 160h16v16h-16z" fill="#2d7dbe"/><path d="m88 88h16v16h-16z" fill="#459ce5"/><path d="m88 120h16v56h-16z" fill="#459ce5"/><rect fill="#de5540" height="240" rx="24" width="160" x="288" y="176"/><rect fill="#ffb431" height="32" rx="8" width="32" x="384" y="208"/><rect fill="#ffb431" height="48" rx="16" width="32" x="320" y="336"/><path d="m473.941 321.941-25.941-25.941v72l-33.373-33.373a22.627 22.627 0 0 0 -16-6.627 22.628 22.628 0 0 0 -22.627 22.627 22.627 22.627 0 0 0 6.627 16l33.373 33.373a64.032 64.032 0 0 0 0 80v16h72v-140.118a48 48 0 0 0 -14.059-33.941z" fill="#fdc8a2"/><path d="m445.171 365.858h16v14.627h-16z" fill="#fdb683" transform="matrix(.707 -.707 .707 .707 -131.143 429.726)"/><path d="m344 232h16v16h-16z" fill="#e86954"/><path d="m344 264h16v16h-16z" fill="#e86954"/><path d="m344 296h16v16h-16z" fill="#e86954"/><path d="m320 48h16v16h-16z" fill="#dfdfdd"/><path d="m320 80h16v72h-16z" fill="#dfdfdd"/></g></svg>