<svg id="Capa_1" enable-background="new 0 0 510.071 510.071" height="512" viewBox="0 0 510.071 510.071" width="512" xmlns="http://www.w3.org/2000/svg"><g><path d="m510.071 390.093h-60.063v-374.877l-389.952-.182v104.963h15v-89.956l119.968.056v88.442l24.998 17.144 17.493-12 17.498 12 17.499-12 17.502 12 25.002-17.143v-43.543h-15v35.64l-10.002 6.857-17.502-12-17.499 12-17.5-12-17.492 12-9.997-6.856v-80.534l89.992.042v29.851h15v-29.844l119.992.056v359.884c-82.716.006-279.486.005-359.952-.061v-255.035h-15v255.096h-60.056v44.952h67.638c-18.625 23.59-.361 60.638 29.977 59.983 30.33.655 48.606-36.398 29.975-59.983h172.428v-15h-285.018v-14.952c105.413-.029 328.408.049 435.008.115v-.115h45.063v14.952h-150.052v15h37.429c-18.626 23.59-.361 60.638 29.976 59.983 30.33.655 48.607-36.399 29.975-59.983h67.673v-44.952zm-389.965 67.444c-.779 29.659-44.209 29.652-44.984-.001.779-29.658 44.21-29.652 44.984.001zm314.809 0c-.779 29.659-44.209 29.652-44.984-.001.779-29.658 44.209-29.652 44.984.001z"/><path d="m315.019 420.045h15v15h-15z"/><path d="m105.08 285.014h89.878v-60.032h-89.878zm15-45.033h59.878v30.032h-59.878z"/><path d="m105.019 300.093h45v15h-45z"/><path d="m105.019 330.053h90v15h-90z"/><path d="m90.04 44.997h15v15h-15z"/><path d="m90.04 74.997h15v15h-15z"/><path d="m225.199 44.997h15v15h-15z"/><path d="m90.04 449.997h15v15h-15z"/><path d="m404.923 449.997h15v15h-15z"/></g></svg>