<?xml version="1.0" encoding="iso-8859-1"?>
<!-- Generator: Adobe Illustrator 19.0.0, SVG Export Plug-In . SVG Version: 6.00 Build 0)  -->
<svg version="1.1" id="Capa_1" xmlns="http://www.w3.org/2000/svg" xmlns:xlink="http://www.w3.org/1999/xlink" x="0px" y="0px"
	 viewBox="0 0 481.044 481.044" style="enable-background:new 0 0 481.044 481.044;" xml:space="preserve">
<g>
	<g>
		<path d="M480.85,349.845C480.85,349.845,480.85,349.845,480.85,349.845l-34.776-156.169c-0.963-4.312-5.239-7.027-9.551-6.064
			c0,0-0.001,0-0.001,0l-38.928,8.672c-0.048-0.056-0.064-0.12-0.112-0.168l-144-152c-0.441-0.402-0.93-0.749-1.456-1.032
			c-7.879-15.657-26.958-21.962-42.615-14.083c-6.013,3.026-10.907,7.885-13.977,13.875c-0.977,0.597-1.813,1.399-2.448,2.352
			L42.138,275.468l-35.872,8c-4.313,0.959-7.032,5.232-6.073,9.545c0,0.002,0.001,0.005,0.002,0.007l34.792,156.152
			c0.813,3.657,4.054,6.26,7.8,6.264c0.587,0,1.172-0.067,1.744-0.2l430.256-95.84C479.098,358.434,481.813,354.157,480.85,349.845z
			 M223.674,41.612c8.837,0,16,7.163,16,16s-7.163,16-16,16s-16-7.163-16-16S214.837,41.612,223.674,41.612z M194.938,71.436
			c7.526,15.868,26.491,22.631,42.36,15.104c7.855-3.726,13.842-10.505,16.568-18.76l125.6,132.544L64.53,270.476L194.938,71.436z
			 M48.858,437.884L17.546,297.332l414.64-92.368l31.312,140.552L48.858,437.884z"/>
	</g>
</g>
<g>
	<g>
		<path d="M178.586,358.876l-11.376-46.624c-2.09-8.586-10.745-13.852-19.331-11.761c-0.002,0-0.004,0.001-0.005,0.001l-23.32,5.688
			c-8.581,2.098-13.839,10.754-11.744,19.336l11.368,46.624c1.74,7.163,8.148,12.211,15.52,12.224
			c1.286-0.004,2.567-0.16,3.816-0.464l23.32-5.688C175.419,376.118,180.68,367.461,178.586,358.876z M163.042,362.652
			l-23.312,5.688l-11.384-46.624l23.328-5.704l11.384,46.624L163.042,362.652z"/>
	</g>
</g>
<g>
	<g>
		<path d="M227.306,322.276l-5.688-23.304c-2.11-8.574-10.753-13.83-19.336-11.76l-15.544,3.792
			c-8.585,2.093-13.848,10.75-11.754,19.335c0.001,0.003,0.002,0.006,0.002,0.009l13.272,54.4c0.876,3.575,4.079,6.091,7.76,6.096
			c0.641,0.001,1.28-0.075,1.904-0.224c4.293-1.045,6.926-5.372,5.882-9.665c-0.001-0.002-0.001-0.005-0.002-0.007l-3.792-15.544
			l15.544-3.792C224.138,339.518,229.4,330.861,227.306,322.276z M196.218,329.876l-5.688-23.32l15.544-3.784l5.688,23.312
			L196.218,329.876z"/>
	</g>
</g>
<g>
	<g>
		<path d="M289.29,340.084c-1.047-4.295-5.377-6.927-9.672-5.88l0.008,0.024l-23.312,5.688l-3.792-15.536l7.768-1.904
			c4.288-1.065,6.9-5.405,5.835-9.693c-1.059-4.262-5.356-6.874-9.627-5.851l-7.776,1.896l-3.792-15.536l23.32-5.688
			c4.297-1.029,6.946-5.346,5.917-9.643c-1.029-4.297-5.346-6.946-9.643-5.917c-0.022,0.005-0.044,0.011-0.066,0.016l-23.312,5.688
			c-8.586,2.09-13.852,10.745-11.761,19.331c0,0.002,0.001,0.004,0.001,0.005l5.688,23.304l5.68,23.296
			c2.094,8.585,10.751,13.846,19.336,11.752l23.32-5.68C287.704,348.709,290.337,344.379,289.29,340.084z"/>
	</g>
</g>
<g>
	<g>
		<path d="M351.506,324.94l-15.2-62.176c-1.029-4.297-5.346-6.946-9.643-5.917c-4.297,1.029-6.946,5.346-5.917,9.643
			c0.005,0.022,0.011,0.044,0.016,0.065l8.56,35.08l-34.064-33.216c-3.161-3.087-8.226-3.026-11.313,0.135
			c-1.929,1.976-2.703,4.807-2.047,7.489l15.2,62.168c0.874,3.581,4.082,6.102,7.768,6.104c0.639,0,1.275-0.075,1.896-0.224
			c4.293-1.045,6.926-5.372,5.882-9.665c-0.001-0.002-0.001-0.005-0.002-0.007l-8.56-35.072l34.064,33.216
			c3.161,3.087,8.226,3.026,11.313-0.135C351.388,330.454,352.162,327.623,351.506,324.94z"/>
	</g>
</g>
<g>
	<g>
		<path d="M43.674,297.612c-6.627,0-12,5.373-12,12c0,6.627,5.373,12,12,12s12-5.373,12-12
			C55.674,302.985,50.301,297.612,43.674,297.612z M43.674,313.612c-2.209,0-4-1.791-4-4c0-2.209,1.791-4,4-4s4,1.791,4,4
			C47.674,311.822,45.883,313.612,43.674,313.612z"/>
	</g>
</g>
<g>
	<g>
		<path d="M411.674,217.612c-6.627,0-12,5.373-12,12c0,6.627,5.373,12,12,12c6.627,0,12-5.373,12-12
			C423.674,222.985,418.301,217.612,411.674,217.612z M411.674,233.612c-2.209,0-4-1.791-4-4c0-2.209,1.791-4,4-4
			c2.209,0,4,1.791,4,4C415.674,231.822,413.883,233.612,411.674,233.612z"/>
	</g>
</g>
<g>
</g>
<g>
</g>
<g>
</g>
<g>
</g>
<g>
</g>
<g>
</g>
<g>
</g>
<g>
</g>
<g>
</g>
<g>
</g>
<g>
</g>
<g>
</g>
<g>
</g>
<g>
</g>
<g>
</g>
</svg>
