<svg width="18" height="18" viewBox="0 0 18 18" fill="none" xmlns="http://www.w3.org/2000/svg">
<circle cx="9" cy="9" r="9" fill="url(#paint0_linear)"/>
<g clip-path="url(#clip0)">
<path d="M11.8125 14H6.1875C5.67083 14 5.25 13.5796 5.25 13.0625V8.6875C5.25 8.17042 5.67083 7.75 6.1875 7.75H11.8125C12.3292 7.75 12.75 8.17042 12.75 8.6875V13.0625C12.75 13.5796 12.3292 14 11.8125 14ZM6.1875 8.375C6.01542 8.375 5.875 8.515 5.875 8.6875V13.0625C5.875 13.235 6.01542 13.375 6.1875 13.375H11.8125C11.9846 13.375 12.125 13.235 12.125 13.0625V8.6875C12.125 8.515 11.9846 8.375 11.8125 8.375H6.1875Z" fill="white"/>
<path d="M11.1875 8.375C11.015 8.375 10.875 8.235 10.875 8.0625V6.5C10.875 5.46625 10.0337 4.625 9 4.625C7.96625 4.625 7.125 5.46625 7.125 6.5V8.0625C7.125 8.235 6.985 8.375 6.8125 8.375C6.64 8.375 6.5 8.235 6.5 8.0625V6.5C6.5 5.12125 7.62125 4 9 4C10.3787 4 11.5 5.12125 11.5 6.5V8.0625C11.5 8.235 11.36 8.375 11.1875 8.375Z" fill="white"/>
<path d="M8.99984 11.0833C8.54025 11.0833 8.1665 10.7096 8.1665 10.25C8.1665 9.79041 8.54025 9.41666 8.99984 9.41666C9.45942 9.41666 9.83317 9.79041 9.83317 10.25C9.83317 10.7096 9.45942 11.0833 8.99984 11.0833ZM8.99984 10.0417C8.88525 10.0417 8.7915 10.135 8.7915 10.25C8.7915 10.365 8.88525 10.4583 8.99984 10.4583C9.11442 10.4583 9.20817 10.365 9.20817 10.25C9.20817 10.135 9.11442 10.0417 8.99984 10.0417Z" fill="white"/>
<path d="M9 12.3333C8.8275 12.3333 8.6875 12.1933 8.6875 12.0208V10.875C8.6875 10.7025 8.8275 10.5625 9 10.5625C9.1725 10.5625 9.3125 10.7025 9.3125 10.875V12.0208C9.3125 12.1933 9.1725 12.3333 9 12.3333Z" fill="white"/>
</g>
<defs>
<linearGradient id="paint0_linear" x1="19" y1="4" x2="9" y2="18" gradientUnits="userSpaceOnUse">
<stop stop-color="#FD008C"/>
<stop offset="1" stop-color="#540D6E"/>
</linearGradient>
<clipPath id="clip0">
<rect width="10" height="10" fill="white" transform="translate(4 4)"/>
</clipPath>
</defs>
</svg>
